<?xml version="1.0" encoding="UTF-8" standalone="no"?>
<svg
   xmlns:dc="http://purl.org/dc/elements/1.1/"
   xmlns:cc="http://creativecommons.org/ns#"
   xmlns:rdf="http://www.w3.org/1999/02/22-rdf-syntax-ns#"
   xmlns:svg="http://www.w3.org/2000/svg"
   xmlns="http://www.w3.org/2000/svg"
   xmlns:sodipodi="http://sodipodi.sourceforge.net/DTD/sodipodi-0.dtd"
   xmlns:inkscape="http://www.inkscape.org/namespaces/inkscape"
   xml:space="preserve"
   version="1.1"
   overflow="visible"
   viewBox="0 0 484.862 525.335"
   id="svg3063"
   inkscape:version="0.48.5 r10040"
   width="100%"
   height="100%"
   sodipodi:docname="rdftalk_r2r.svg"
   inkscape:export-filename="/home/klip/space/my-playground/rdfTalk/logo/rdftalk_r2r_icon.48.png"
   inkscape:export-xdpi="8.9097519"
   inkscape:export-ydpi="8.9097519"><metadata
     id="metadata3101"><rdf:RDF><cc:Work
         rdf:about=""><dc:format>image/svg+xml</dc:format><dc:type
           rdf:resource="http://purl.org/dc/dcmitype/StillImage" /><dc:title></dc:title></cc:Work></rdf:RDF></metadata><defs
     id="defs3099" /><sodipodi:namedview
     pagecolor="#ffffff"
     bordercolor="#666666"
     borderopacity="1"
     objecttolerance="10"
     gridtolerance="10"
     guidetolerance="10"
     inkscape:pageopacity="0"
     inkscape:pageshadow="2"
     inkscape:window-width="1280"
     inkscape:window-height="977"
     id="namedview3097"
     showgrid="false"
     inkscape:zoom="1.5190307"
     inkscape:cx="242.431"
     inkscape:cy="262.6675"
     inkscape:window-x="1280"
     inkscape:window-y="0"
     inkscape:window-maximized="1"
     inkscape:current-layer="g3065" /><g
     shape-rendering="geometricPrecision"
     text-rendering="geometricPrecision"
     image-rendering="optimizeQuality"
     id="g3065"><rect
       y="40.473"
       width="484.862"
       height="484.862"
       id="rect3067" /><rect
       y="50.808"
       x="9.477"
       width="464.192"
       height="329.847"
       id="rect3069"
       fill="#FFFFFF" /><path
       d="m 338.85943,257.28206 c -1.7717,-0.93738 -3.57962,-1.73618 -5.39241,-2.44862 l 1.29744,-0.10447 c 0,0 -11.56622,-5.1215 -12.57534,-42.28827 -1.00146,-37.16955 11.02301,-43.51119 11.02301,-43.51119 l -1.72714,0.0759 c 9.08486,-4.65908 16.89874,-12.02516 22.05506,-21.73958 13.43751,-25.27393 3.82198,-56.66247 -21.45683,-70.099976 -25.28716,-13.424273 -56.66943,-3.834512 -70.09928,21.461706 -5.52055,10.37603 -7.0882,21.77928 -5.34644,32.546 l -0.59266,-0.90953 c 0,0 3.04546,13.48625 -28.57568,33.11497 -31.61557,19.63916 -45.87834,9.86067 -45.87834,9.86067 l 0.90675,1.34061 c -0.90396,-0.55923 -1.77171,-1.13099 -2.71676,-1.62475 -25.28437,-13.43681 -56.675,-3.8366 -70.10693,21.45265 -13.42776,25.28646 -3.82268,56.66455 21.45892,70.10763 18.84802,10.00344 41.07092,7.21496 56.73141,-5.33113 l -0.33916,0.65882 c 0,0 11.51259,-9.47067 44.68258,8.33829 26.18625,14.05245 30.07438,27.82633 30.57233,32.99867 -0.68459,19.20041 9.32373,38.0373 27.43145,47.6584 25.2809,13.44029 56.67083,3.82894 70.09998,-21.45265 13.43541,-25.2816 3.8352,-56.6764 -21.45196,-70.10416 z m -58.45367,6.81451 c -4.19108,1.48269 -16.15913,3.12486 -41.35994,-10.39134 -27.29078,-14.65277 -31.34257,-26.89242 -31.93453,-30.56676 0.38791,-4.45781 0.14067,-8.90796 -0.62052,-13.24599 l 0.16645,0.25002 c 0,0 -2.2209,-11.90607 29.00607,-31.29939 27.94959,-17.34653 40.65446,-13.89715 43.01882,-12.9904 1.52169,1.03419 3.09909,1.99665 4.75309,2.87693 3.14645,1.67002 6.389,2.98278 9.67194,3.95011 3.84427,3.6611 10.91854,14.05245 11.65327,41.37665 0.75075,27.53314 -7.33544,38.14943 -11.74519,41.90246 -4.54487,2.05863 -8.79306,4.80323 -12.60946,8.13771 z"
       id="path3071"
       inkscape:connector-curvature="0"
       style="fill:#0c479c" /><g
       id="g3073"
       transform="matrix(0.69642423,0,0,0.69642423,71.79745,71.09792)"><path
         d="m 294.631,32.4 c -21.659,23.694 -22.118,58.544 -1.246,78.264 -10.316,-9.935 -10.093,-30.608 0.33,-50.387 1.342,-1.774 5.224,-5.961 10.898,-4.055 0.569,0.194 0.951,0.245 1.17,0.213 1.284,0.278 2.601,0.439 3.96,0.381 8.622,-0.393 15.288,-7.684 14.898,-16.307 -0.175,-3.868 -1.78,-7.292 -4.26,-9.92 20.007,-13.107 42.968,-14.61 52.375,-6.016 l 0.359,0.025 C 351.625,4.97 316.493,8.476 294.631,32.4 z"
         id="path3075"
         inkscape:connector-curvature="0"
         style="fill:#ffffff" /></g><g
       id="g3077"
       transform="matrix(0.69642423,0,0,0.69642423,71.79745,71.09792)"><path
         d="m 76.205,251.381 c -0.184,-0.19 -0.371,-0.406 -0.562,-0.598 0.121,0.125 0.235,0.279 0.378,0.407 l 0.184,0.191 z"
         id="path3079"
         inkscape:connector-curvature="0"
         style="fill:#ffffff" /><path
         d="m 76.894,172.52 c -21.663,23.694 -22.114,58.541 -1.251,78.264 -10.313,-9.935 -10.092,-30.608 0.331,-50.387 1.345,-1.778 5.231,-5.961 10.906,-4.055 0.565,0.195 0.946,0.242 1.167,0.212 1.283,0.275 2.603,0.44 3.959,0.377 8.623,-0.392 15.288,-7.684 14.899,-16.303 -0.179,-3.867 -1.782,-7.296 -4.252,-9.92 19.995,-13.107 42.959,-14.617 52.366,-6.021 l 0.355,0.03 c -21.483,-19.631 -56.623,-16.126 -78.48,7.803 z"
         id="path3081"
         inkscape:connector-curvature="0"
         style="fill:#ffffff" /></g><g
       id="g3083"
       transform="matrix(0.69642423,0,0,0.69642423,71.79745,71.09792)"><path
         d="m 306.701,370.015 c -0.187,-0.191 -0.374,-0.404 -0.564,-0.594 0.117,0.125 0.237,0.279 0.378,0.402 l 0.186,0.192 z"
         id="path3085"
         inkscape:connector-curvature="0"
         style="fill:#ffffff" /><path
         d="m 307.39,291.145 c -21.666,23.704 -22.118,58.553 -1.254,78.276 -10.317,-9.935 -10.09,-30.611 0.331,-50.388 1.344,-1.781 5.227,-5.96 10.906,-4.053 0.568,0.189 0.941,0.242 1.166,0.212 1.282,0.277 2.605,0.44 3.963,0.381 8.617,-0.396 15.28,-7.692 14.891,-16.32 -0.176,-3.864 -1.781,-7.288 -4.252,-9.917 20.002,-13.103 42.959,-14.61 52.37,-6.016 l 0.355,0.029 c -21.483,-19.631 -56.625,-16.123 -78.476,7.796 z"
         id="path3087"
         inkscape:connector-curvature="0"
         style="fill:#ffffff" /></g><g
       id="g3089"
       transform="translate(-21.72438,-7.2414599)"><path
         d="m 226.39798,497.639 h -27.878 l -25.326,-30 h -8.171 v 30 h -22.687 v -81.875 h 36.565 c 5.046,0 9.441,0.284 13.186,0.853 3.745,0.569 7.203,1.751 10.377,3.548 3.256,1.871 5.84,4.245 7.753,7.124 1.912,2.879 2.869,6.537 2.869,10.975 0,6.271 -1.567,11.359 -4.7,15.265 -3.133,3.906 -7.324,7.014 -12.572,9.324 l 30.584,34.786 z m -36.75,-56.799 c 0,-2.054 -0.438,-3.823 -1.314,-5.31 -0.876,-1.485 -2.332,-2.632 -4.368,-3.438 -1.426,-0.55 -3.015,-0.898 -4.767,-1.045 -1.752,-0.147 -3.931,-0.221 -6.538,-0.221 h -7.638 v 22.063 h 6.538 c 3.178,0 5.876,-0.174 8.097,-0.522 2.22,-0.348 4.104,-1.091 5.651,-2.229 1.467,-1.026 2.557,-2.255 3.27,-3.686 0.713,-1.431 1.069,-3.302 1.069,-5.612 z"
         id="path3091"
         inkscape:connector-curvature="0"
         style="fill:#ffffff" /><text
         xml:space="preserve"
         style="font-size:114.86341095px;font-style:normal;font-variant:normal;font-weight:bold;font-stretch:normal;line-height:125%;letter-spacing:0px;word-spacing:0px;fill:#ffffff;fill-opacity:1;stroke:none;font-family:DejaVu Sans;-inkscape-font-specification:DejaVu Sans Bold"
         x="222.55229"
         y="497.59491"
         id="text3115"
         sodipodi:linespacing="125%"><tspan
           sodipodi:role="line"
           id="tspan3117"
           x="222.55229"
           y="497.59491">2</tspan></text>
<path
         d="m 383.03792,497.80777 h -27.878 l -25.326,-30 h -8.171 v 30 h -22.687 v -81.875 h 36.565 c 5.046,0 9.441,0.284 13.186,0.853 3.745,0.569 7.203,1.751 10.377,3.548 3.256,1.871 5.84,4.245 7.753,7.124 1.912,2.879 2.869,6.537 2.869,10.975 0,6.271 -1.567,11.359 -4.7,15.265 -3.133,3.906 -7.324,7.014 -12.572,9.324 l 30.584,34.786 z m -36.75,-56.799 c 0,-2.054 -0.438,-3.823 -1.314,-5.31 -0.876,-1.485 -2.332,-2.632 -4.368,-3.438 -1.426,-0.55 -3.015,-0.898 -4.767,-1.045 -1.752,-0.147 -3.931,-0.221 -6.538,-0.221 h -7.638 v 22.063 h 6.538 c 3.178,0 5.876,-0.174 8.097,-0.522 2.22,-0.348 4.104,-1.091 5.651,-2.229 1.467,-1.026 2.557,-2.255 3.27,-3.686 0.713,-1.431 1.069,-3.302 1.069,-5.612 z"
         id="path3091-3"
         inkscape:connector-curvature="0"
         style="fill:#ffffff" /></g><text
       xml:space="preserve"
       style="font-size:327.21838379px;font-style:normal;font-weight:normal;line-height:125%;letter-spacing:0px;word-spacing:0px;fill:#000000;fill-opacity:1;stroke:none;font-family:Sans"
       x="24.69076"
       y="314.99088"
       id="text3103"
       sodipodi:linespacing="125%"><tspan
         sodipodi:role="line"
         x="24.69076"
         y="314.99088"
         id="tspan3107">[</tspan></text>
<text
       xml:space="preserve"
       style="font-size:326.18051147px;font-style:normal;font-weight:normal;line-height:125%;letter-spacing:0px;word-spacing:0px;fill:#000000;fill-opacity:1;stroke:none;font-family:Sans"
       x="333.60709"
       y="315.51898"
       id="text3111"
       sodipodi:linespacing="125%"><tspan
         sodipodi:role="line"
         id="tspan3113"
         x="333.60709"
         y="315.51898">]</tspan></text>
</g></svg>